<?xml version="1.0" standalone="no"?>
<!DOCTYPE svg PUBLIC "-//W3C//DTD SVG 20010904//EN"
 "http://www.w3.org/TR/2001/REC-SVG-20010904/DTD/svg10.dtd">
<svg version="1.0" xmlns="http://www.w3.org/2000/svg"
 width="98.000000pt" height="85.000000pt" viewBox="0 0 98.000000 85.000000"
 preserveAspectRatio="xMidYMid meet">

    <g transform="translate(0.000000,85.000000) scale(0.100000,-0.100000)" fill='white'>
        <path d="M832 783 c-7 -3 -26 -31 -42 -64 l-30 -59 -368 -2 -367 -3 -3 -312
        -2 -313 354 0 355 0 71 72 70 73 0 168 0 167 45 90 c25 49 45 98 45 108 0 22
        -21 43 -67 66 -33 17 -40 18 -61 9z m88 -74 c0 -4 -3 -14 -6 -23 -5 -14 -11
        -13 -45 4 -41 22 -46 29 -28 47 9 9 20 7 45 -5 19 -8 34 -19 34 -23z m-60 -59
        c19 -11 28 -19 20 -19 -8 0 -31 8 -50 19 -19 11 -28 19 -20 19 8 0 31 -8 50
        -19z m-115 -161 c-57 -113 -85 -152 -85 -119 0 5 28 66 62 134 40 81 66 122
        74 119 9 -3 -6 -43 -51 -134z m-15 126 c0 -3 -9 -24 -20 -45 l-20 -40 -320 0
        -320 0 0 45 0 45 340 0 c187 0 340 -2 340 -5z m70 -156 c-70 -139 -67 -135
        -77 -125 -4 4 22 65 57 136 36 72 68 126 73 121 5 -5 -19 -63 -53 -132z m-160
        -29 c-25 -50 -32 -77 -37 -154 -4 -66 -2 -95 6 -100 7 -5 40 18 82 55 51 45
        80 81 104 128 l34 66 1 -112 0 -113 -53 0 c-29 0 -58 -5 -65 -12 -7 -7 -12
        -36 -12 -65 l0 -53 -325 0 -325 0 0 210 0 210 310 0 310 0 -30 -60z m44 -123
        c16 -11 15 -15 -14 -42 l-30 -29 0 35 c0 50 12 60 44 36z m106 -150 c0 -2 -11
        -14 -25 -27 l-25 -23 0 26 c0 22 5 27 25 27 14 0 25 -1 25 -3z"/>
    </g>
    <g transform="translate(0.000000,85.000000) scale(0.100000,-0.100000)" fill='white'>
        <path d="M116 593 c-12 -12 -6 -33 9 -33 8 0 15 6 15 14 0 17 -14 28 -24 19z"/>
        <path d="M171 586 c-12 -14 -5 -26 16 -26 15 0 18 26 4 34 -5 3 -14 0 -20 -8z"/>
        <path d="M223 584 c-7 -19 2 -28 22 -21 19 8 19 23 0 31 -9 3 -18 -1 -22 -10z"/>
        <path d="M305 260 c-52 -123 -66 -163 -57 -172 8 -8 15 -8 21 -3 17 17 141
        317 135 326 -16 27 -37 -6 -99 -151z"/>
        <path d="M142 317 c-29 -29 -52 -57 -52 -63 0 -14 103 -114 117 -114 28 0 21
        23 -21 68 l-45 48 39 39 c39 38 52 75 27 75 -7 0 -36 -24 -65 -53z"/>
        <path d="M424 359 c-3 -6 14 -32 40 -58 l46 -47 -45 -44 c-49 -48 -53 -58 -29
        -67 16 -6 124 91 124 112 0 14 -103 115 -117 115 -7 0 -15 -5 -19 -11z"/>
    </g>
</svg>